<svg xmlns="http://www.w3.org/2000/svg" width="24.357" height="18.566" viewBox="0 0 24.357 18.566">
  <defs>
    <style>
      .cls-1 {
        fill: #ff511c;
      }
    </style>
  </defs>
  <title>discord</title>
  <g id="Layer_2" data-name="Layer 2">
    <g id="Layer_1-2" data-name="Layer 1">
      <path class="cls-1" d="M20.62,1.539A20.083,20.083,0,0,0,15.662,0a.076.076,0,0,0-.08.038,13.984,13.984,0,0,0-.617,1.268,18.535,18.535,0,0,0-5.568,0A12.832,12.832,0,0,0,8.769.039.078.078,0,0,0,8.69,0,20.024,20.024,0,0,0,3.732,1.539a.072.072,0,0,0-.033.028A20.556,20.556,0,0,0,.1,15.431a.083.083,0,0,0,.032.057,20.192,20.192,0,0,0,6.082,3.075.079.079,0,0,0,.085-.028A14.423,14.423,0,0,0,7.544,16.51.077.077,0,0,0,7.5,16.4,13.292,13.292,0,0,1,5.6,15.5a.078.078,0,0,1-.008-.13c.128-.1.255-.2.377-.3a.075.075,0,0,1,.079-.011,14.405,14.405,0,0,0,12.241,0,.075.075,0,0,1,.08.01c.122.1.25.2.378.3a.078.078,0,0,1-.007.13,12.465,12.465,0,0,1-1.9.9.078.078,0,0,0-.041.108,16.231,16.231,0,0,0,1.243,2.023.077.077,0,0,0,.085.029,20.125,20.125,0,0,0,6.092-3.075.078.078,0,0,0,.032-.056,20.422,20.422,0,0,0-3.6-13.864A.062.062,0,0,0,20.62,1.539ZM8.14,12.664A2.341,2.341,0,0,1,5.95,10.209,2.328,2.328,0,0,1,8.14,7.754a2.315,2.315,0,0,1,2.189,2.455A2.328,2.328,0,0,1,8.14,12.664Zm8.094,0a2.341,2.341,0,0,1-2.189-2.455,2.328,2.328,0,0,1,2.189-2.455,2.316,2.316,0,0,1,2.189,2.455A2.322,2.322,0,0,1,16.233,12.664Z"/>
    </g>
  </g>
</svg>
