<svg xmlns="http://www.w3.org/2000/svg" width="76.525" height="65.948" viewBox="0 0 76.525 65.948">
  <defs>
    <style>
      .cls-1 {
        fill: #ff511c;
      }

      .cls-2 {
        fill: #ff9f37;
      }

      .cls-3 {
        fill: #fff;
      }
    </style>
  </defs>
  <title>bar-icon-2</title>
  <g id="Layer_2" data-name="Layer 2">
    <g id="Layer_1-2" data-name="Layer 1">
      <g>
        <g>
          <path class="cls-1" d="M76,31.214l-2.6-2.052L72.93,25.9a1.3,1.3,0,0,0-.508-.88l-2.589-2.04-.473-3.262a1.338,1.338,0,0,0-.515-.892l-2.589-2.04-.466-3.25a1.3,1.3,0,0,0-.508-.88l-2.589-2.04-.466-3.25a1.338,1.338,0,0,0-.515-.892L59.132,4.445l-.473-3.262A1.369,1.369,0,0,0,56.25.5L52.324,5.173,69.374,34.706l6.013-1.062a1.368,1.368,0,0,0,1.089-1.025A1.335,1.335,0,0,0,76,31.214Z"/>
          <path class="cls-1" d="M1.132,32.319a1.359,1.359,0,0,0-.6,2.422l2.589,2.041.466,3.25a1.34,1.34,0,0,0,.515.892l2.582,2.028.473,3.262a1.3,1.3,0,0,0,.508.88l2.582,2.029.461,3.269a1.477,1.477,0,0,0,.515.892l2.6,2.033.461,3.269a1.438,1.438,0,0,0,.508.88l2.6,2.034.468,3.281a1.583,1.583,0,0,0,.171.488,1.392,1.392,0,0,0,2.238.2L24.2,60.79,7.145,31.257Z"/>
          <rect class="cls-1" x="14.839" y="16.507" width="46.841" height="32.948" transform="translate(-11.365 23.548) rotate(-30)"/>
        </g>
        <g>
          <path class="cls-2" d="M76.481,32.624a1.344,1.344,0,0,1-.4.67.3.3,0,0,0-.08-.08l-2.6-2.05-.47-3.26a1.287,1.287,0,0,0-.51-.88l-2.59-2.04-.47-3.27a1.35,1.35,0,0,0-.52-.89l-2.58-2.04-.47-3.25a1.331,1.331,0,0,0-.51-.88l-2.59-2.04-.46-3.25a1.35,1.35,0,0,0-.52-.89l-2.58-2.03-.47-3.26a1.372,1.372,0,0,0-2.41-.69L53,6.364l-.68-1.19,3.93-4.68a1.35,1.35,0,0,1,1.42-.44,1.359,1.359,0,0,1,.99,1.13l.47,3.26,2.58,2.03a1.35,1.35,0,0,1,.52.89l.46,3.25,2.59,2.04a1.331,1.331,0,0,1,.51.88l.47,3.25,2.58,2.04a1.35,1.35,0,0,1,.52.89l.47,3.27,2.59,2.04a1.287,1.287,0,0,1,.51.88l.47,3.26,2.6,2.05A1.355,1.355,0,0,1,76.481,32.624Z"/>
          <path class="cls-2" d="M24.191,60.794l-.68.81L7.141,33.254l-6.01,1.07a1.289,1.289,0,0,0-.69.34,1.358,1.358,0,0,1,.69-2.34l6.01-1.07Z"/>
          <polygon class="cls-2" points="66.781 35.534 65.911 36.034 50.301 9.004 10.611 31.924 9.741 30.424 50.301 7.004 66.781 35.534"/>
        </g>
        <path class="cls-3" d="M47.1,26.576l-11.931-1.7a.605.605,0,0,0-.664.779l1.678,5.378-8.846-.2a1.553,1.553,0,0,0-1.518,2.015l18.074,6.5a.605.605,0,0,0,.782-.752l-1.721-5.446,9.1,2.015Z"/>
      </g>
    </g>
  </g>
</svg>
