<svg xmlns="http://www.w3.org/2000/svg" width="53.603" height="53.613" viewBox="0 0 53.603 53.613">
  <defs>
    <style>
      .cls-1 {
        fill: #ff511c;
      }

      .cls-2 {
        fill: #ff9f37;
      }

      .cls-3 {
        fill: #fff;
      }
    </style>
  </defs>
  <title>bar-icon-3</title>
  <g id="Layer_2" data-name="Layer 2">
    <g id="Layer_1-2" data-name="Layer 1">
      <g>
        <g>
          <path class="cls-1" d="M20.28.576A1,1,0,0,0,19.354,0a.971.971,0,0,0-.9.6L17.5,2.816l-2.2.947a.948.948,0,0,0-.523.523l-.947,2.2-2.2.947a.974.974,0,0,0-.53.53l-.947,2.2-2.2.94a.95.95,0,0,0-.523.523l-.947,2.2-2.2.94a.974.974,0,0,0-.53.53l-.94,2.2-2.2.947A1,1,0,0,0,.58,20.276l4.028,1.88L22.159,4.6Z"/>
          <path class="cls-1" d="M53.037,33.334,49.01,31.454,31.458,49.006l1.879,4.027A.989.989,0,0,0,35.154,53l.947-2.2,2.2-.94a.975.975,0,0,0,.53-.53l.94-2.2,2.2-.947a.95.95,0,0,0,.523-.523l.94-2.2,2.212-.94a1.075,1.075,0,0,0,.53-.53l.94-2.212,2.212-.94a1.048,1.048,0,0,0,.523-.523l.94-2.212,2.219-.947a1.158,1.158,0,0,0,.311-.212,1.013,1.013,0,0,0-.283-1.611Z"/>
          <rect class="cls-1" x="14.818" y="9.758" width="23.982" height="34.095" transform="translate(-11.102 26.808) rotate(-45)"/>
        </g>
        <g>
          <path class="cls-2" d="M22.16,4.6l-.64.64L20.28,2.58A1,1,0,0,0,19.35,2a.969.969,0,0,0-.89.6L17.5,4.82l-2.2.94a.934.934,0,0,0-.52.53l-.95,2.2-2.21.95a.983.983,0,0,0-.53.53l-.94,2.2-2.2.94a.947.947,0,0,0-.52.52l-.95,2.21-2.2.94a.983.983,0,0,0-.53.53l-.94,2.2-2.03.87-.2-.1a1,1,0,0,1,.03-1.83l2.2-.94.94-2.2a.983.983,0,0,1,.53-.53l2.2-.94.95-2.21a.947.947,0,0,1,.52-.52l2.2-.94.94-2.2a.983.983,0,0,1,.53-.53l2.21-.95.95-2.2a.934.934,0,0,1,.52-.53l2.2-.94L18.46.6a.969.969,0,0,1,.89-.6,1,1,0,0,1,.93.58Z"/>
          <path class="cls-2" d="M53.6,34.25a.942.942,0,0,1-.28.69,1.1,1.1,0,0,1-.31.22l-.18.07-3.82-1.78L32.1,50.37l-.64-1.36L49.01,31.45l4.03,1.88A.979.979,0,0,1,53.6,34.25Z"/>
          <polygon class="cls-2" points="47.34 30.38 46.34 31.38 23.23 8.27 7.28 24.23 6.28 23.23 23.23 6.27 47.34 30.38"/>
        </g>
        <path class="cls-3" d="M20.641,21.8,21.7,30.506a.44.44,0,0,0,.673.32l3.465-2.193,1.526,6.257a1.13,1.13,0,0,0,1.7.687l1.166-13.932a.441.441,0,0,0-.676-.408l-3.5,2.236-.3-6.78Z"/>
      </g>
    </g>
  </g>
</svg>
