<svg xmlns="http://www.w3.org/2000/svg" width="91.017" height="91.008" viewBox="0 0 91.017 91.008">
  <defs>
    <style>
      .cls-1 {
        fill: #ff511c;
      }

      .cls-2 {
        fill: #ff9f37;
      }

      .cls-3 {
        fill: #fff;
      }
    </style>
  </defs>
  <title>bar-icon-1</title>
  <g id="Layer_2" data-name="Layer 2">
    <g id="Layer_1-2" data-name="Layer 1">
      <g>
        <g>
          <path class="cls-1" d="M90,31.337l-3.755-1.62-1.608-3.743a1.612,1.612,0,0,0-.888-.888L80,23.479,78.4,19.736a1.654,1.654,0,0,0-.9-.9l-3.743-1.608-1.6-3.731a1.613,1.613,0,0,0-.888-.888L67.528,11l-1.6-3.731a1.656,1.656,0,0,0-.9-.9L61.3,4.777,59.694,1.034A1.692,1.692,0,0,0,56.6.986L53.408,7.824l29.8,29.8,6.838-3.191a1.691,1.691,0,0,0,.972-1.572A1.649,1.649,0,0,0,90,31.337Z"/>
          <path class="cls-1" d="M.984,56.6a1.679,1.679,0,0,0,.06,3.083l3.743,1.607,1.6,3.731a1.655,1.655,0,0,0,.9.9l3.731,1.6,1.608,3.743a1.611,1.611,0,0,0,.888.887l3.731,1.6,1.6,3.755a1.823,1.823,0,0,0,.9.9l3.755,1.6,1.6,3.755a1.776,1.776,0,0,0,.888.888l3.755,1.6L31.335,90a1.961,1.961,0,0,0,.36.528,1.72,1.72,0,0,0,2.735-.48l3.191-6.838-29.8-29.8Z"/>
          <rect class="cls-1" x="16.571" y="25.158" width="57.886" height="40.717" transform="translate(-18.854 45.515) rotate(-45)"/>
        </g>
        <g>
          <path class="cls-2" d="M91.015,32.86a1.563,1.563,0,0,1-.32,1.03,1.658,1.658,0,0,0-.7-.55l-3.75-1.62-1.61-3.75a1.6,1.6,0,0,0-.89-.88L80,25.48l-1.61-3.74a1.623,1.623,0,0,0-.9-.9l-3.74-1.61-1.6-3.73a1.6,1.6,0,0,0-.88-.89L67.525,13l-1.59-3.73a1.655,1.655,0,0,0-.9-.9L61.3,6.78l-1.61-3.75a1.695,1.695,0,0,0-3.1-.04l-2.55,5.47-.64-.64L56.595.99a1.695,1.695,0,0,1,3.1.04L61.3,4.78l3.73,1.59a1.655,1.655,0,0,1,.9.9L67.525,11l3.75,1.61a1.6,1.6,0,0,1,.88.89l1.6,3.73,3.74,1.61a1.623,1.623,0,0,1,.9.9L80,23.48l3.74,1.61a1.6,1.6,0,0,1,.89.88l1.61,3.75,3.75,1.62A1.647,1.647,0,0,1,91.015,32.86Z"/>
          <path class="cls-2" d="M37.625,83.21l-.64,1.36L7.825,55.41.985,58.6a1.637,1.637,0,0,0-.64.52A1.647,1.647,0,0,1,0,58.16a1.7,1.7,0,0,1,.98-1.56l6.84-3.19Z"/>
          <polygon class="cls-2" points="80.375 39.45 79.375 40.45 51.585 12.66 11.655 52.59 10.655 51.59 51.585 10.66 80.375 39.45"/>
        </g>
        <path class="cls-3" d="M54.015,35.044,39.23,36.835a.748.748,0,0,0-.543,1.143l3.724,5.883-10.623,2.59a1.919,1.919,0,0,0-1.167,2.891l23.655,1.98a.748.748,0,0,0,.693-1.147l-3.8-5.95,11.512-.507Z"/>
      </g>
    </g>
  </g>
</svg>
